<svg xmlns="http://www.w3.org/2000/svg" width="1140" height="310" viewBox="0 0 1140 310" font-family="monospace" font-size="12">
<rect x="0" y="0" width="1140" height="310" fill="#ffffff"/>
<line x1="359.9" y1="80" x2="359.9" y2="240" stroke="#f0f0f0" stroke-width="1"/>
<line x1="470.2" y1="80" x2="470.2" y2="240" stroke="#f0f0f0" stroke-width="1"/>
<line x1="580.5" y1="80" x2="580.5" y2="240" stroke="#f0f0f0" stroke-width="1"/>
<line x1="690.8" y1="80" x2="690.8" y2="240" stroke="#f0f0f0" stroke-width="1"/>
<line x1="801.2" y1="80" x2="801.2" y2="240" stroke="#f0f0f0" stroke-width="1"/>
<line x1="911.5" y1="80" x2="911.5" y2="240" stroke="#f0f0f0" stroke-width="1"/>
<line x1="1021.8" y1="80" x2="1021.8" y2="240" stroke="#f0f0f0" stroke-width="1"/>
<line x1="395.2" y1="101.0" x2="395.2" y2="128.0" stroke="#777" stroke-width="1.2" stroke-dasharray="4 3" fill="none"/>
<line x1="676.3" y1="101.0" x2="676.3" y2="160.0" stroke="#777" stroke-width="1.2" stroke-dasharray="4 3" fill="none"/>
<line x1="830.4" y1="101.0" x2="830.4" y2="192.0" stroke="#777" stroke-width="1.2" stroke-dasharray="4 3" fill="none"/>
<line x1="1064.8" y1="101.0" x2="1064.8" y2="224.0" stroke="#777" stroke-width="1.2" stroke-dasharray="4 3" fill="none"/>
<text x="332" y="100.0" text-anchor="end" fill="#222" font-weight="bold">AgentMassDataNext774411</text>
<line x1="395.2" y1="96.0" x2="1120.0" y2="96.0" stroke="#222" stroke-width="3"/>
<text x="332" y="132.0" text-anchor="end" fill="#222">AgentMassThird889922</text>
<line x1="428.6" y1="128.0" x2="1120.0" y2="128.0" stroke="#222" stroke-width="2.5"/>
<line x1="428.6" y1="124.0" x2="428.6" y2="132.0" stroke="#222" stroke-width="2"/>
<text x="431.6" y="122.0" text-anchor="start" fill="#222" font-weight="bold">@1</text>
<text x="332" y="164.0" text-anchor="end" fill="#222">AgentCountyTransformJulyUniqueXQ</text>
<line x1="599.6" y1="160.0" x2="1120.0" y2="160.0" stroke="#222" stroke-width="2.5"/>
<line x1="599.6" y1="156.0" x2="599.6" y2="164.0" stroke="#222" stroke-width="2"/>
<text x="602.6" y="154.0" text-anchor="start" fill="#222" font-weight="bold">@1</text>
<text x="332" y="196.0" text-anchor="end" fill="#222">AgentMassDataSelfNewX</text>
<line x1="956.4" y1="192.0" x2="1120.0" y2="192.0" stroke="#222" stroke-width="2.5"/>
<line x1="956.4" y1="188.0" x2="956.4" y2="196.0" stroke="#222" stroke-width="2"/>
<text x="959.4" y="186.0" text-anchor="start" fill="#222" font-weight="bold">@1</text>
<text x="332" y="228.0" text-anchor="end" fill="#222">AgentMassDataSelfNextY</text>
<line x1="395.2" y1="91.0" x2="395.2" y2="101.0" stroke="#222" stroke-width="2"/>
<text x="398.2" y="89.0" text-anchor="start" fill="#222" font-weight="bold">@1</text>
<line x1="434.3" y1="91.0" x2="434.3" y2="101.0" stroke="#222" stroke-width="2"/>
<text x="437.3" y="89.0" text-anchor="start" fill="#222" font-weight="bold">@2</text>
<line x1="676.3" y1="91.0" x2="676.3" y2="101.0" stroke="#222" stroke-width="2"/>
<text x="679.3" y="89.0" text-anchor="start" fill="#222" font-weight="bold">@3</text>
<line x1="830.4" y1="91.0" x2="830.4" y2="101.0" stroke="#222" stroke-width="2"/>
<text x="833.4" y="89.0" text-anchor="start" fill="#222" font-weight="bold">@4</text>
<line x1="1064.8" y1="91.0" x2="1064.8" y2="101.0" stroke="#222" stroke-width="2"/>
<text x="1067.8" y="89.0" text-anchor="start" fill="#222" font-weight="bold">@5</text>
<polygon points="391.2,98.0 399.2,98.0 395.2,105.0" fill="#222" stroke="#222"/>
<polygon points="672.3,98.0 680.3,98.0 676.3,105.0" fill="#222" stroke="#222"/>
<polygon points="826.4,98.0 834.4,98.0 830.4,105.0" fill="#222" stroke="#222"/>
<polygon points="1060.8,98.0 1068.8,98.0 1064.8,105.0" fill="#222" stroke="#222"/>
<line x1="395.2" y1="86.0" x2="395.2" y2="80.0" stroke="#333" stroke-width="1" stroke-dasharray="3 2"/>
<text x="395.2" y="54.0" text-anchor="middle" fill="#333" font-size="10">api.census.gov</text>
<text x="395.2" y="66.0" text-anchor="middle" fill="#333" font-size="10">jqp.vercel.app</text>
<text x="395.2" y="78.0" text-anchor="middle" fill="#333" font-size="10">www.sec.gov</text>
<polygon points="391.2,94.0 399.2,94.0 395.2,87.0" fill="#222" stroke="#222"/>
<line x1="434.3" y1="86.0" x2="434.3" y2="80.0" stroke="#333" stroke-width="1" stroke-dasharray="3 2"/>
<text x="434.3" y="78.0" text-anchor="middle" fill="#333" font-size="10">jqp.vercel.app</text>
<polygon points="430.3,94.0 438.3,94.0 434.3,87.0" fill="#222" stroke="#222"/>
<line x1="676.3" y1="86.0" x2="676.3" y2="80.0" stroke="#333" stroke-width="1" stroke-dasharray="3 2"/>
<text x="676.3" y="54.0" text-anchor="middle" fill="#333" font-size="10">api.census.gov</text>
<text x="676.3" y="66.0" text-anchor="middle" fill="#333" font-size="10">jqp.vercel.app</text>
<text x="676.3" y="78.0" text-anchor="middle" fill="#333" font-size="10">www.sec.gov</text>
<polygon points="672.3,94.0 680.3,94.0 676.3,87.0" fill="#222" stroke="#222"/>
<line x1="830.4" y1="86.0" x2="830.4" y2="80.0" stroke="#333" stroke-width="1" stroke-dasharray="3 2"/>
<text x="830.4" y="66.0" text-anchor="middle" fill="#333" font-size="10">da.gd</text>
<text x="830.4" y="78.0" text-anchor="middle" fill="#333" font-size="10">www.sec.gov</text>
<polygon points="826.4,94.0 834.4,94.0 830.4,87.0" fill="#222" stroke="#222"/>
<line x1="1064.8" y1="86.0" x2="1064.8" y2="80.0" stroke="#333" stroke-width="1" stroke-dasharray="3 2"/>
<text x="1064.8" y="78.0" text-anchor="middle" fill="#333" font-size="10">md.succ.ai</text>
<polygon points="1060.8,94.0 1068.8,94.0 1064.8,87.0" fill="#222" stroke="#222"/>
<circle cx="395.2" cy="128.0" r="4.5" fill="#fff" stroke="#222" stroke-width="1.8"/>
<circle cx="676.3" cy="160.0" r="4.5" fill="#222" stroke="#222" stroke-width="1"/>
<circle cx="830.4" cy="192.0" r="4.5" fill="#fff" stroke="#222" stroke-width="1.8"/>
<circle cx="1064.8" cy="224.0" r="4.5" fill="#fff" stroke="#222" stroke-width="1.8"/>
<line x1="340" y1="80" x2="340" y2="240" stroke="#333" stroke-width="1"/>
<line x1="340" y1="240" x2="1120" y2="240" stroke="#333" stroke-width="1"/>
<text x="359.9" y="255" text-anchor="middle" fill="#333">17:10</text>
<text x="470.2" y="255" text-anchor="middle" fill="#333">17:20</text>
<text x="580.5" y="255" text-anchor="middle" fill="#333">17:30</text>
<text x="690.8" y="255" text-anchor="middle" fill="#333">17:40</text>
<text x="801.2" y="255" text-anchor="middle" fill="#333">17:50</text>
<text x="911.5" y="255" text-anchor="middle" fill="#333">18:00</text>
<text x="1021.8" y="255" text-anchor="middle" fill="#333">18:10</text>
<text x="730.0" y="275" text-anchor="middle" fill="#333">2026-06-18 UTC</text>
<polygon points="356.0,291.0 364.0,291.0 360.0,298.0" fill="#222" stroke="#222"/>
<text x="370" y="295" fill="#333" font-size="11">new internal link at this rev</text>
<polygon points="596.0,298.0 604.0,298.0 600.0,291.0" fill="#222" stroke="#222"/>
<text x="610" y="295" fill="#333" font-size="11">new external link (host labeled above)</text>
<circle cx="880" cy="291" r="4.5" fill="#fff" stroke="#222" stroke-width="1.8"/>
<text x="890" y="295" fill="#333" font-size="11">target didn't exist yet</text>
<circle cx="1040" cy="291" r="4.5" fill="#222" stroke="#222"/>
<text x="1050" y="295" fill="#333" font-size="11">target existed</text>
</svg>